<svg xmlns="http://www.w3.org/2000/svg" width="900" height="380" viewBox="0 0 900 380" role="img" aria-labelledby="title desc">
  <title id="title">Laminar pipe flow with submarines</title>
  <desc id="desc">Side view of a pipe with five small submarines flowing left to right. The center submarine moves fastest and the submarines closest to the top and bottom walls move slowest, illustrating the parabolic velocity profile of laminar flow.</desc>

  <defs>
    <linearGradient id="wallGrad" x1="0%" y1="0%" x2="0%" y2="100%">
      <stop offset="0%" stop-color="#d9dde3"/>
      <stop offset="55%" stop-color="#aeb5bf"/>
      <stop offset="100%" stop-color="#8f97a3"/>
    </linearGradient>

    <linearGradient id="waterGrad" x1="0%" y1="0%" x2="0%" y2="100%">
      <stop offset="0%" stop-color="#dff3ff"/>
      <stop offset="24%" stop-color="#bfe8ff"/>
      <stop offset="50%" stop-color="#69c9ff"/>
      <stop offset="76%" stop-color="#bfe8ff"/>
      <stop offset="100%" stop-color="#dff3ff"/>
    </linearGradient>

    <clipPath id="pipeInside">
      <rect x="80" y="110" width="740" height="160"/>
    </clipPath>

    <symbol id="sub" viewBox="0 0 60 24">
      <line x1="2" y1="10" x2="10" y2="20" stroke="#0f172a" stroke-width="1.4" stroke-linecap="round"/>
      <line x1="2" y1="20" x2="10" y2="10" stroke="#0f172a" stroke-width="1.4" stroke-linecap="round"/>
      <path d="M 10 9 Q 8 22, 16 22 L 48 22 Q 56 22, 56 15 Q 56 8, 48 8 L 16 8 Q 8 8, 10 15 Z"
            fill="#475569" stroke="#0f172a" stroke-width="1"/>
      <path d="M 26 4 L 38 4 Q 40 4, 40 6 L 40 9 L 26 9 Z"
            fill="#475569" stroke="#0f172a" stroke-width="1"/>
      <line x1="32" y1="1" x2="32" y2="4" stroke="#0f172a" stroke-width="1.4"/>
      <circle cx="32" cy="1" r="1.1" fill="#0f172a"/>
      <circle cx="20" cy="15" r="1.4" fill="#fde68a" stroke="#0f172a" stroke-width="0.5"/>
      <circle cx="30" cy="15" r="1.4" fill="#fde68a" stroke="#0f172a" stroke-width="0.5"/>
      <circle cx="40" cy="15" r="1.4" fill="#fde68a" stroke="#0f172a" stroke-width="0.5"/>
      <circle cx="48" cy="15" r="1.4" fill="#fde68a" stroke="#0f172a" stroke-width="0.5"/>
    </symbol>
  </defs>

  <rect x="0" y="0" width="900" height="380" fill="#ffffff"/>

  <text x="450" y="42" text-anchor="middle" font-family="Inter, Arial, sans-serif" font-size="28" font-weight="700" fill="#334155">
    Laminar Flow - Submarines in the Pipe
  </text>

  <rect x="80" y="80" width="740" height="30" rx="6" fill="url(#wallGrad)" stroke="#7f8792" stroke-width="2"/>
  <rect x="80" y="270" width="740" height="30" rx="6" fill="url(#wallGrad)" stroke="#7f8792" stroke-width="2"/>

  <rect x="80" y="110" width="740" height="160" fill="url(#waterGrad)" stroke="#78bfe6" stroke-width="2"/>

  <g clip-path="url(#pipeInside)">
    <use href="#sub" y="114" width="60" height="24">
      <animate attributeName="x" from="-80" to="900" dur="9s" begin="-1.5s" repeatCount="indefinite"/>
    </use>
    <use href="#sub" y="146" width="60" height="24">
      <animate attributeName="x" from="-80" to="900" dur="4.2s" begin="-2.8s" repeatCount="indefinite"/>
    </use>
    <use href="#sub" y="178" width="60" height="24">
      <animate attributeName="x" from="-80" to="900" dur="3s" begin="0s" repeatCount="indefinite"/>
    </use>
    <use href="#sub" y="210" width="60" height="24">
      <animate attributeName="x" from="-80" to="900" dur="4.2s" begin="-1.2s" repeatCount="indefinite"/>
    </use>
    <use href="#sub" y="242" width="60" height="24">
      <animate attributeName="x" from="-80" to="900" dur="9s" begin="-6.5s" repeatCount="indefinite"/>
    </use>
  </g>

  <text x="830" y="102" text-anchor="end" font-family="Inter, Arial, sans-serif" font-size="17" fill="#4b5563">Top pipe wall</text>
  <text x="830" y="293" text-anchor="end" font-family="Inter, Arial, sans-serif" font-size="17" fill="#4b5563">Bottom pipe wall</text>

  <text x="450" y="334" text-anchor="middle" font-family="Inter, Arial, sans-serif" font-size="17" fill="#0f172a">
    Center submarine is fastest. Submarines near the walls are slowest.
  </text>
</svg>
