<svg xmlns="http://www.w3.org/2000/svg" width="900" height="380" viewBox="0 0 900 380" role="img" aria-labelledby="title desc">
  <title id="title">Laminar pipe-flow cross-section</title>
  <desc id="desc">A pipe cross-section with gray walls and blue flow that is darkest at the center where speed is highest.</desc>

  <defs>
    <linearGradient id="wallGrad" x1="0%" y1="0%" x2="0%" y2="100%">
      <stop offset="0%" stop-color="#d9dde3"/>
      <stop offset="55%" stop-color="#aeb5bf"/>
      <stop offset="100%" stop-color="#8f97a3"/>
    </linearGradient>

    <linearGradient id="waterGrad" x1="0%" y1="0%" x2="0%" y2="100%">
      <stop offset="0%" stop-color="#dff3ff"/>
      <stop offset="24%" stop-color="#bfe8ff"/>
      <stop offset="50%" stop-color="#69c9ff"/>
      <stop offset="76%" stop-color="#bfe8ff"/>
      <stop offset="100%" stop-color="#dff3ff"/>
    </linearGradient>

    <marker id="arrowHead" markerWidth="9" markerHeight="7" refX="8" refY="3.5" orient="auto">
      <polygon points="0 0, 9 3.5, 0 7" fill="#0b6ea8"/>
    </marker>
  </defs>

  <rect x="0" y="0" width="900" height="380" fill="#ffffff"/>

  <text x="450" y="42" text-anchor="middle" font-family="Inter, Arial, sans-serif" font-size="28" font-weight="700" fill="#334155">
    Laminar Flow
  </text>

  <rect x="80" y="80" width="740" height="30" rx="6" fill="url(#wallGrad)" stroke="#7f8792" stroke-width="2"/>
  <rect x="80" y="270" width="740" height="30" rx="6" fill="url(#wallGrad)" stroke="#7f8792" stroke-width="2"/>

  <rect x="80" y="110" width="740" height="160" fill="url(#waterGrad)" stroke="#78bfe6" stroke-width="2"/>

  <g stroke="#0b6ea8" stroke-width="4" fill="none" marker-end="url(#arrowHead)">
    <line x1="130" y1="136" x2="250" y2="136"/>
    <line x1="320" y1="136" x2="440" y2="136"/>
    <line x1="510" y1="136" x2="630" y2="136"/>
    <line x1="680" y1="136" x2="770" y2="136"/>

    <line x1="120" y1="168" x2="300" y2="168"/>
    <line x1="350" y1="168" x2="530" y2="168"/>
    <line x1="580" y1="168" x2="780" y2="168"/>

    <line x1="110" y1="190" x2="330" y2="190"/>
    <line x1="370" y1="190" x2="590" y2="190"/>
    <line x1="620" y1="190" x2="790" y2="190"/>

    <line x1="120" y1="212" x2="300" y2="212"/>
    <line x1="350" y1="212" x2="530" y2="212"/>
    <line x1="580" y1="212" x2="780" y2="212"/>

    <line x1="130" y1="244" x2="250" y2="244"/>
    <line x1="320" y1="244" x2="440" y2="244"/>
    <line x1="510" y1="244" x2="630" y2="244"/>
    <line x1="680" y1="244" x2="770" y2="244"/>
  </g>

  <text x="475" y="102" text-anchor="end" font-family="Inter, Arial, sans-serif" font-size="17" fill="#4b5563">Pipe wall</text>
  <text x="475" y="293" text-anchor="end" font-family="Inter, Arial, sans-serif" font-size="17" fill="#4b5563">Pipe wall</text>

</svg>
